<svg width="590" height="164" viewBox="0 0 590 164" fill="none" xmlns="http://www.w3.org/2000/svg">
  <path d="M18.9127 0.877342C14.9171 1.75465 8.52405 5.70258 5.86028 8.86091C0.355168 15.2653 0.443961 14.4757 0.177584 56.5869L0 95.1887L13.1412 82.029C20.3334 74.7473 37.4703 57.4642 51.0555 43.4271C64.7295 29.4778 79.913 13.9493 84.7077 9.03637L93.587 2.28882e-05L57.6261 0.0877533C37.9143 0.175484 22.198 0.155991 18.9127 0.877342Z" fill="#FFCC00"/>
  <path d="M114.32 15.2069C105.981 23.6455 93.8268 36.0396 87.2619 42.808C80.697 49.5764 69.6077 60.8278 62.5993 67.8599L49.9131 80.6935L57.72 88.0772C69.6077 99.5044 118.489 146.356 128.248 155.673L136.853 163.936L142.088 163.497C150.959 162.618 158.322 157.607 162.137 149.608C164 145.653 164 145.037 164 81.9241C164 10.6361 162.669 13.5865 157.524 7.91113C153.539 3.51606 147.943 0.879012 137.829 0.351604L129.401 -2.38419e-07L114.32 15.2069Z" fill="#007AFF"/>
  <path d="M16.2963 116.807L0 133.333V138.055C0 149.422 6.14451 158.778 15.762 162.363C20.3927 164.024 22.1737 164.111 60.1984 163.937L99.8261 163.674L66.7882 132.197C48.5328 114.884 33.3941 100.631 33.0379 100.544C32.7707 100.369 25.2014 107.714 16.2963 116.807Z" fill="#FF2D55"/>
  <path d="M226 135.818L229.723 125.669H231.356L235.134 135.818H233.612L232.823 133.62H228.214L227.439 135.818H226ZM230.498 127.111L228.643 132.402H232.38L230.498 127.111Z" fill="white"/>
  <path d="M243.066 125.669V134.586H248.367V135.818H241.655V125.669H243.066Z" fill="white"/>
  <path d="M256.301 125.669V134.586H261.602V135.818H254.889V125.669H256.301Z" fill="white"/>
  <path d="M278.813 135.818V126.901H275.546V125.669H283.49V126.901H280.224V135.818H278.813Z" fill="white"/>
  <path d="M296.696 125.669H298.108V135.818H296.696V131.212H291.423V135.818H290.012V125.669H291.423V129.98H296.696V125.669Z" fill="white"/>
  <path d="M307.226 125.669V135.818H305.814V125.669H307.226Z" fill="white"/>
  <path d="M323.009 135.818H320.947L316.352 127.153V135.818H314.94V125.669H317.016L321.597 134.306V125.669H323.009V135.818Z" fill="white"/>
  <path d="M334.896 125.487C336.972 125.487 338.632 126.663 339.047 128.623H337.677C337.345 127.489 336.432 126.691 334.826 126.691C333.055 126.691 331.671 128.091 331.671 130.722C331.671 133.298 332.986 134.796 334.826 134.796C336.155 134.796 337.788 134.236 337.788 132.136V131.87H335.131V130.638H339.117V135.818H338.01L337.94 134.544C337.29 135.594 336.113 136 334.771 136C331.892 136 330.232 133.802 330.232 130.722C330.232 127.587 332.072 125.487 334.896 125.487Z" fill="white"/>
  <path d="M346.279 128.259C346.279 126.313 348.286 125.487 349.905 125.487C351.718 125.487 353.31 126.313 353.711 128.259H352.341C352.009 127.097 350.846 126.691 349.85 126.691C349.075 126.691 347.718 127.041 347.718 128.175C347.718 129.071 348.41 129.518 349.352 129.728L350.514 129.994C352.05 130.33 353.891 130.918 353.891 132.962C353.891 134.936 352.064 136 350.071 136C347.705 136 346.21 134.684 345.947 132.668H347.331C347.594 134.068 348.549 134.796 350.099 134.796C351.594 134.796 352.438 134.096 352.438 133.088C352.438 132.01 351.524 131.59 350.279 131.296L349.033 131.03C347.649 130.722 346.279 129.938 346.279 128.259Z" fill="white"/>
  <path d="M370.913 125.669V135.818H369.501V125.669H370.913Z" fill="white"/>
  <path d="M386.696 135.818H384.634L380.039 127.153V135.818H378.627V125.669H380.703L385.284 134.306V125.669H386.696V135.818Z" fill="white"/>
  <path d="M403.97 130.736C403.97 133.354 405.409 134.796 407.236 134.796C409.063 134.796 410.502 133.354 410.502 130.736C410.502 128.119 409.063 126.691 407.236 126.691C405.409 126.691 403.97 128.119 403.97 130.736ZM411.942 130.736C411.942 133.802 410.129 136 407.236 136C404.344 136 402.531 133.802 402.531 130.736C402.531 127.671 404.344 125.487 407.236 125.487C410.129 125.487 411.942 127.671 411.942 130.736Z" fill="white"/>
  <path d="M427.238 135.818H425.176L420.581 127.153V135.818H419.169V125.669H421.245L425.826 134.306V125.669H427.238V135.818Z" fill="white"/>
  <path d="M434.945 135.818V125.669H441.754V126.901H436.356V129.98H441.435V131.212H436.356V134.586H441.754V135.818H434.945Z" fill="white"/>
  <path d="M457.373 135.818V125.669H463.891V126.901H458.785V129.98H463.601V131.212H458.785V135.818H457.373Z" fill="white"/>
  <path d="M476.563 135.818L474.39 131.534C474.127 131.548 473.892 131.548 473.629 131.548H471.857V135.818H470.445V125.669H473.629C476.064 125.669 477.808 126.159 477.808 128.595C477.808 130.204 477.047 130.974 475.815 131.31L478.14 135.818H476.563ZM473.739 126.873H471.857V130.344H473.739C475.22 130.344 476.355 130.19 476.355 128.623C476.355 127.055 475.22 126.873 473.739 126.873Z" fill="white"/>
  <path d="M484.112 135.818L487.835 125.669H489.468L493.246 135.818H491.724L490.935 133.62H486.326L485.551 135.818H484.112ZM488.61 127.111L486.755 132.402H490.492L488.61 127.111Z" fill="white"/>
  <path d="M505.441 135.818H503.946L501.178 126.971V135.818H499.767V125.669H502.133L504.693 134.124L507.254 125.669H509.62V135.818H508.209V126.971L505.441 135.818Z" fill="white"/>
  <path d="M517.326 135.818V125.669H524.135V126.901H518.738V129.98H523.817V131.212H518.738V134.586H524.135V135.818H517.326Z" fill="white"/>
  <path d="M537.176 125.669L539.155 134.194L541.01 125.669H542.491L539.986 135.818H538.269L536.332 127.475L534.436 135.818H532.72L530.173 125.669H531.723L533.661 134.194L535.515 125.669H537.176Z" fill="white"/>
  <path d="M550.035 130.736C550.035 133.354 551.474 134.796 553.301 134.796C555.128 134.796 556.567 133.354 556.567 130.736C556.567 128.119 555.128 126.691 553.301 126.691C551.474 126.691 550.035 128.119 550.035 130.736ZM558.007 130.736C558.007 133.802 556.194 136 553.301 136C550.409 136 548.596 133.802 548.596 130.736C548.596 127.671 550.409 125.487 553.301 125.487C556.194 125.487 558.007 127.671 558.007 130.736Z" fill="white"/>
  <path d="M571.351 135.818L569.178 131.534C568.915 131.548 568.68 131.548 568.417 131.548H566.646V135.818H565.234V125.669H568.417C570.853 125.669 572.597 126.159 572.597 128.595C572.597 130.204 571.835 130.974 570.604 131.31L572.929 135.818H571.351ZM568.528 126.873H566.646V130.344H568.528C570.009 130.344 571.143 130.19 571.143 128.623C571.143 127.055 570.009 126.873 568.528 126.873Z" fill="white"/>
  <path d="M581.367 125.669V130.778L585.893 125.669H587.65L583.9 129.812L588.079 135.818H586.391L582.945 130.862L581.367 132.626V135.818H579.955V125.669H581.367Z" fill="white"/>
  <path d="M234.476 28V54.471L258.568 28H267.925L247.959 49.4669L270.209 80.5793H261.221L242.875 54.9061L234.476 64.044V80.5793H226.96V28H234.476Z" fill="white"/>
  <path d="M291.866 63.8264H268.437V57.5895H291.866V63.8264Z" fill="white"/>
  <path d="M302.938 28H319.663C332.704 28 341.84 30.9009 341.84 43.8826C341.84 56.9367 332.704 59.7651 319.663 59.7651H310.453V80.5793H302.938V28ZM320.252 34.237H310.453V53.3106H320.252C328.136 53.3106 334.177 52.5128 334.177 43.8826C334.177 35.3248 328.136 34.237 320.252 34.237Z" fill="white"/>
  <path d="M356.925 28V80.5793H350.22V28H356.925Z" fill="white"/>
  <path d="M394.011 64.2616V61.7958C381.854 62.9562 374.118 64.7692 374.118 70.136C374.118 73.8346 376.991 76.3004 381.78 76.3004C388.043 76.3004 394.011 73.472 394.011 64.2616ZM380.307 81.5221C372.865 81.5221 366.676 77.4608 366.676 70.281C366.676 61.0706 377.286 58.3147 393.495 56.5741V55.6313C393.495 48.4515 389.516 46.1308 384.506 46.1308C378.907 46.1308 375.739 49.0317 375.444 53.8908H368.518C369.108 45.4781 376.77 40.7641 384.433 40.7641C395.411 40.7641 400.273 45.8407 400.2 56.8642L400.126 65.8571C400.052 72.4567 400.347 76.8806 401.157 80.5793H394.379C394.158 79.1288 393.937 77.5333 393.863 75.2126C391.432 79.2739 387.38 81.5221 380.307 81.5221Z" fill="white"/>
  <path d="M413.579 41.5618V31.7712H420.284V41.5618H427.799V46.856H420.284V69.9909C420.284 74.0522 420.579 75.0675 424.41 75.0675H427.799V80.5793H422.936C415.347 80.5793 413.579 78.9113 413.579 70.7887V46.856H407.316V41.5618H413.579Z" fill="white"/>
  <path d="M438.791 41.5618V38.7334C438.791 30.6108 440.412 28 449.475 28H452.938V33.5118H449.622C446.085 33.5118 445.496 34.3095 445.496 38.3708V41.5618H452.938V46.856H445.496V80.5793H438.791V46.856H433.266V41.5618H438.791Z" fill="white"/>
  <path d="M464.796 61.2156C464.796 71.6589 470.543 75.7202 476.658 75.7202C482.773 75.7202 488.52 71.2238 488.52 61.2156C488.52 50.7723 482.773 46.711 476.658 46.711C470.543 46.711 464.796 50.5547 464.796 61.2156ZM476.658 40.9091C485.868 40.9091 495.667 47.0736 495.667 61.2156C495.667 75.3576 485.868 81.5221 476.658 81.5221C467.448 81.5221 457.649 75.3576 457.649 61.2156C457.649 47.0736 467.448 40.9091 476.658 40.9091Z" fill="white"/>
  <path d="M524.905 41.4168V48.4515C523.505 48.234 522.253 48.1614 521.148 48.1614C514.959 48.1614 511.864 51.4975 511.864 60.1278V80.5793H505.16V41.5618H511.717V48.379C513.706 43.9551 517.685 41.5618 522.916 41.3443C523.579 41.3443 524.095 41.3443 524.905 41.4168Z" fill="white"/>
  <path d="M539.528 59.4025V80.5793H532.823V41.5618H539.528V47.4362C541.812 43.7375 545.496 40.9091 551.464 40.9091C557.579 40.9091 561.116 43.4474 562.884 47.7988C566.052 42.9398 570.62 40.9091 576.22 40.9091C585.429 40.9091 589.04 47.0011 589.04 55.9214V80.5793H582.335V57.8795C582.335 51.8601 581.156 46.6385 573.862 46.6385C568.041 46.6385 564.284 50.9898 564.284 59.4025V80.5793H557.579V57.8795C557.579 51.8601 556.4 46.6385 549.106 46.6385C543.286 46.6385 539.528 50.9898 539.528 59.4025Z" fill="white"/>
  <path d="M226 109.239H590" stroke="white"/>
</svg>
