<svg width="590" height="164" viewBox="0 0 590 164" fill="none" xmlns="http://www.w3.org/2000/svg">
  <path d="M18.9127 0.877342C14.9171 1.75465 8.52405 5.70258 5.86028 8.86091C0.355168 15.2653 0.443961 14.4757 0.177584 56.5869L0 95.1887L13.1412 82.029C20.3334 74.7473 37.4703 57.4642 51.0555 43.4271C64.7295 29.4778 79.913 13.9493 84.7077 9.03637L93.587 2.28882e-05L57.6261 0.0877533C37.9143 0.175484 22.198 0.155991 18.9127 0.877342Z" fill="#FFCC00"/>
  <path d="M114.32 15.2069C105.981 23.6454 93.8268 36.0395 87.2619 42.8079C80.697 49.5763 69.6077 60.8277 62.5993 67.8598L49.9131 80.6934L57.72 88.0771C69.6077 99.5043 118.489 146.356 128.248 155.673L136.853 163.936L142.088 163.497C150.959 162.618 158.322 157.607 162.137 149.608C164 145.653 164 145.037 164 81.924C164 10.636 162.669 13.5865 157.524 7.91107C153.539 3.51599 147.943 0.878952 137.829 0.351547L129.401 -6.10352e-05L114.32 15.2069Z" fill="#007AFF"/>
  <path d="M16.2963 116.807L0 133.333V138.055C0 149.422 6.14451 158.778 15.762 162.363C20.3927 164.024 22.1737 164.111 60.1984 163.937L99.8261 163.674L66.7882 132.197C48.5328 114.884 33.3941 100.631 33.0379 100.544C32.7707 100.369 25.2014 107.714 16.2963 116.807Z" fill="#FF2D55"/>
  <path d="M234.476 55V81.471L258.568 55H267.925L247.959 76.4669L270.209 107.579H261.221L242.875 81.9061L234.476 91.044V107.579H226.96V55H234.476Z" fill="white"/>
  <path d="M291.866 90.8264H268.437V84.5895H291.866V90.8264Z" fill="white"/>
  <path d="M302.938 55H319.663C332.704 55 341.84 57.9009 341.84 70.8826C341.84 83.9367 332.704 86.7651 319.663 86.7651H310.453V107.579H302.938V55ZM320.252 61.237H310.453V80.3106H320.252C328.136 80.3106 334.177 79.5128 334.177 70.8826C334.177 62.3248 328.136 61.237 320.252 61.237Z" fill="white"/>
  <path d="M356.925 55V107.579H350.22V55H356.925Z" fill="white"/>
  <path d="M394.011 91.2616V88.7958C381.854 89.9562 374.118 91.7692 374.118 97.136C374.118 100.835 376.991 103.3 381.78 103.3C388.043 103.3 394.011 100.472 394.011 91.2616ZM380.307 108.522C372.865 108.522 366.676 104.461 366.676 97.281C366.676 88.0706 377.286 85.3147 393.495 83.5741V82.6313C393.495 75.4515 389.516 73.1308 384.506 73.1308C378.907 73.1308 375.739 76.0317 375.444 80.8908H368.518C369.108 72.4781 376.77 67.7641 384.433 67.7641C395.411 67.7641 400.273 72.8407 400.2 83.8642L400.126 92.8571C400.052 99.4567 400.347 103.881 401.157 107.579H394.379C394.158 106.129 393.937 104.533 393.863 102.213C391.432 106.274 387.38 108.522 380.307 108.522Z" fill="white"/>
  <path d="M413.579 68.5618V58.7712H420.284V68.5618H427.799V73.856H420.284V96.9909C420.284 101.052 420.579 102.068 424.41 102.068H427.799V107.579H422.936C415.347 107.579 413.579 105.911 413.579 97.7887V73.856H407.316V68.5618H413.579Z" fill="white"/>
  <path d="M438.791 68.5618V65.7334C438.791 57.6108 440.412 55 449.475 55H452.938V60.5118H449.622C446.085 60.5118 445.496 61.3095 445.496 65.3708V68.5618H452.938V73.856H445.496V107.579H438.791V73.856H433.266V68.5618H438.791Z" fill="white"/>
  <path d="M464.796 88.2156C464.796 98.6589 470.543 102.72 476.658 102.72C482.773 102.72 488.52 98.2238 488.52 88.2156C488.52 77.7723 482.773 73.711 476.658 73.711C470.543 73.711 464.796 77.5547 464.796 88.2156ZM476.658 67.9091C485.868 67.9091 495.667 74.0736 495.667 88.2156C495.667 102.358 485.868 108.522 476.658 108.522C467.448 108.522 457.649 102.358 457.649 88.2156C457.649 74.0736 467.448 67.9091 476.658 67.9091Z" fill="white"/>
  <path d="M524.905 68.4168V75.4515C523.505 75.234 522.253 75.1614 521.148 75.1614C514.959 75.1614 511.864 78.4975 511.864 87.1278V107.579H505.16V68.5618H511.717V75.379C513.706 70.9551 517.685 68.5618 522.916 68.3443C523.579 68.3443 524.095 68.3443 524.905 68.4168Z" fill="white"/>
  <path d="M539.528 86.4025V107.579H532.823V68.5618H539.528V74.4362C541.812 70.7375 545.496 67.9091 551.464 67.9091C557.579 67.9091 561.116 70.4474 562.884 74.7988C566.052 69.9398 570.62 67.9091 576.22 67.9091C585.429 67.9091 589.04 74.0011 589.04 82.9214V107.579H582.335V84.8795C582.335 78.8601 581.156 73.6385 573.862 73.6385C568.041 73.6385 564.284 77.9898 564.284 86.4025V107.579H557.579V84.8795C557.579 78.8601 556.4 73.6385 549.106 73.6385C543.286 73.6385 539.528 77.9898 539.528 86.4025Z" fill="white"/>
</svg>
