<?xml version="1.0" standalone="no"?>
<!DOCTYPE svg PUBLIC "-//W3C//DTD SVG 20010904//EN"
 "http://www.w3.org/TR/2001/REC-SVG-20010904/DTD/svg10.dtd">
<svg version="1.0" xmlns="http://www.w3.org/2000/svg"
 width="700.000000pt" height="700.000000pt" viewBox="0 0 700.000000 700.000000"
 preserveAspectRatio="xMidYMid meet">
<metadata>
Created by potrace 1.14, written by Peter Selinger 2001-2017
</metadata>
<g transform="translate(0.000000,700.000000) scale(0.100000,-0.100000)"
fill="#000000" stroke="none">
<path d="M1687 6994 c-1 -1 -166 -4 -367 -8 -416 -7 -459 -10 -555 -38 -73
-21 -194 -78 -258 -122 -21 -14 -40 -26 -43 -26 -3 0 -40 -27 -82 -59 -69 -53
-154 -139 -210 -211 -56 -73 -103 -188 -117 -285 -19 -141 -19 -142 -30 -352
-15 -286 -30 -2943 -17 -2943 7 0 1071 1069 1459 1467 76 77 275 282 443 454
168 172 413 423 546 558 133 135 277 283 320 328 43 44 244 249 445 455 202
205 415 423 474 483 58 61 150 154 203 207 l96 97 -1153 -2 c-634 -1 -1153 -3
-1154 -3z"/>
<path d="M4913 6383 c-336 -340 -652 -661 -704 -714 -424 -435 -812 -832
-1074 -1097 -170 -172 -466 -472 -657 -665 l-348 -352 58 -53 c31 -29 126
-119 211 -200 84 -81 172 -165 195 -186 22 -21 133 -128 246 -236 113 -109
259 -249 324 -311 66 -63 143 -136 171 -164 28 -27 136 -131 240 -230 103 -99
218 -209 255 -245 80 -77 386 -370 474 -453 33 -33 146 -141 250 -240 207
-199 194 -186 456 -437 101 -96 211 -202 245 -235 34 -33 145 -139 245 -235
101 -96 219 -210 263 -252 47 -45 86 -75 96 -73 9 1 63 6 121 9 57 4 122 11
145 16 22 4 56 11 75 14 96 15 258 85 369 159 177 119 351 350 390 522 32 138
36 390 36 2385 0 1644 -5 2282 -20 2570 -3 47 -7 128 -10 180 -2 52 -7 115 -9
140 -3 25 -8 77 -11 115 -3 39 -10 95 -15 125 -5 30 -12 70 -15 88 -11 69 -47
158 -87 217 -50 73 -221 231 -304 279 -198 116 -379 152 -865 171 l-136 5
-610 -617z"/>
<path d="M1309 2622 c-100 -94 -532 -524 -1012 -1012 l-299 -302 3 -172 c2
-94 9 -202 16 -241 67 -363 272 -644 576 -789 130 -62 190 -77 372 -93 143
-13 3285 -7 3285 6 0 3 -31 35 -69 71 -38 36 -136 129 -218 207 -82 79 -172
164 -199 190 -69 65 -416 397 -533 510 -53 50 -112 106 -131 123 -19 18 -109
104 -200 190 -91 87 -185 177 -209 199 -54 51 -323 305 -366 346 -139 133
-490 463 -511 482 -12 10 -79 73 -150 139 -162 152 -233 217 -249 226 -7 5
-47 -25 -106 -80z"/>
</g>
</svg>
